<?xml version="1.0" encoding="UTF-8"?>
<svg width="90px" height="90px" viewBox="0 0 90 90" version="1.1" xmlns="http://www.w3.org/2000/svg" xmlns:xlink="http://www.w3.org/1999/xlink">
    <title>6D01DADD-141D-4613-8AC2-1B18164F7DB1</title>
    <defs>
        <path d="M17.9471964,-7.25088215e-16 L72.0528036,7.25088215e-16 C78.2934348,-4.21297134e-16 80.5564384,0.649779278 82.8379199,1.86992893 C85.1194014,3.09007857 86.9099214,4.88059859 88.1300711,7.16208008 C89.3502207,9.44356156 90,11.7065652 90,17.9471964 L90,72.0528036 C90,78.2934348 89.3502207,80.5564384 88.1300711,82.8379199 C86.9099214,85.1194014 85.1194014,86.9099214 82.8379199,88.1300711 C80.5564384,89.3502207 78.2934348,90 72.0528036,90 L17.9471964,90 C11.7065652,90 9.44356156,89.3502207 7.16208008,88.1300711 C4.88059859,86.9099214 3.09007857,85.1194014 1.86992893,82.8379199 C0.649779278,80.5564384 2.80864756e-16,78.2934348 -4.83392144e-16,72.0528036 L4.83392144e-16,17.9471964 C-2.80864756e-16,11.7065652 0.649779278,9.44356156 1.86992893,7.16208008 C3.09007857,4.88059859 4.88059859,3.09007857 7.16208008,1.86992893 C9.44356156,0.649779278 11.7065652,4.21297134e-16 17.9471964,-7.25088215e-16 Z" id="path-1"></path>
    </defs>
    <g id="osman" stroke="none" stroke-width="1" fill="none" fill-rule="evenodd">
        <g id="Web-Home" transform="translate(-188.000000, -19.000000)">
            <g id="Group-21">
                <g id="Group-3" transform="translate(188.000000, 19.000000)">
                    <g id="Fortnite">
                        <path d="M17.9471964,-7.25088215e-16 L72.0528036,7.25088215e-16 C78.2934348,-4.21297134e-16 80.5564384,0.649779278 82.8379199,1.86992893 C85.1194014,3.09007857 86.9099214,4.88059859 88.1300711,7.16208008 C89.3502207,9.44356156 90,11.7065652 90,17.9471964 L90,72.0528036 C90,78.2934348 89.3502207,80.5564384 88.1300711,82.8379199 C86.9099214,85.1194014 85.1194014,86.9099214 82.8379199,88.1300711 C80.5564384,89.3502207 78.2934348,90 72.0528036,90 L17.9471964,90 C11.7065652,90 9.44356156,89.3502207 7.16208008,88.1300711 C4.88059859,86.9099214 3.09007857,85.1194014 1.86992893,82.8379199 C0.649779278,80.5564384 2.80864756e-16,78.2934348 -4.83392144e-16,72.0528036 L4.83392144e-16,17.9471964 C-2.80864756e-16,11.7065652 0.649779278,9.44356156 1.86992893,7.16208008 C3.09007857,4.88059859 4.88059859,3.09007857 7.16208008,1.86992893 C9.44356156,0.649779278 11.7065652,4.21297134e-16 17.9471964,-7.25088215e-16 Z" id="Mask-Copy" fill="#191C21"></path>
                        <g id="game-icn-Fortnite">
                            <mask id="mask-2" fill="white">
                                <use xlink:href="#path-1"></use>
                            </mask>
                            <use id="Mask" fill="#0C0C0C" xlink:href="#path-1"></use>
                        </g>
                    </g>
                </g>
            </g>
        </g>
    </g>
</svg>