<?xml version="1.0" encoding="UTF-8"?>
<svg width="135px" height="31px" viewBox="0 0 135 31" version="1.1" xmlns="http://www.w3.org/2000/svg" xmlns:xlink="http://www.w3.org/1999/xlink">
    <title>204095B1-0A45-4B2E-85C3-825EAA4EC51C</title>
    <g id="osman" stroke="none" stroke-width="1" fill="none" fill-rule="evenodd">
        <g id="Web-Home" transform="translate(-1000.000000, -2426.000000)">
            <g id="Group-2" transform="translate(0.000000, 2026.000000)">
                <g id="Footer">
                    <g id="Group-11" transform="translate(919.000000, 400.000000)">
                        <g id="mastercard" transform="translate(81.000000, 0.000000)">
                            <rect id="Rectangle" x="0" y="0" width="135" height="31"></rect>
                            <path d="M60.6746397,18.7586163 L60.6746397,14.3968986 C60.6746397,12.7510772 59.6592128,11.6432009 58.0249663,11.6286618 C57.0770421,11.5653055 56.1707864,12.0398634 55.6593874,12.8673896 C55.1932946,12.064258 54.3396197,11.588977 53.4344493,11.6286618 C52.6471974,11.5893565 51.8984512,11.9830075 51.4654775,12.6638428 L51.4654775,11.7914993 L50,11.7914993 L50,18.7586163 L51.4795416,18.7586163 L51.4795416,14.8999501 C51.4795416,13.6903004 52.1264895,13.0505818 53.1278523,13.0505818 C54.129215,13.0505818 54.5933298,13.7048394 54.5933298,14.885411 L54.5933298,18.7586163 L56.064433,18.7586163 L56.064433,14.8999501 C56.064433,13.6903004 56.739509,13.0505818 57.7127436,13.0505818 C58.6859782,13.0505818 59.1922852,13.7048394 59.1922852,14.885411 L59.1922852,18.7586163 L60.6746397,18.7586163 Z M82.5667927,11.7973149 L80.1730856,11.7973149 L80.1730856,9.68624358 L78.693544,9.68624358 L78.693544,11.7973149 L77.326515,11.7973149 L77.326515,13.1814333 L78.693544,13.1814333 L78.693544,16.3538559 C78.693544,17.9705993 79.2982996,18.9331036 81.0309947,18.9331036 C81.678152,18.9352463 82.3127955,18.7488035 82.8621385,18.3951398 L82.440216,17.0982558 C82.0470445,17.3403568 81.6008999,17.4754188 81.1435074,17.4908103 C80.4121751,17.4908103 80.1702728,17.0255605 80.1702728,16.3276856 L80.1702728,13.1814333 L82.5639799,13.1814333 L82.5667927,11.7973149 Z M95.0641377,11.6228462 C94.3362376,11.6009117 93.6551086,11.9925921 93.2892503,12.6434881 L93.2892503,11.7973149 L91.8378368,11.7973149 L91.8378368,18.7586163 L93.3033144,18.7586163 L93.3033144,14.8563329 C93.3033144,13.6932082 93.7814932,13.0651208 94.7406637,13.0651208 C95.054443,13.0604285 95.3660403,13.1197145 95.657642,13.2395895 L96.1076927,11.811854 C95.7727541,11.6880209 95.4198503,11.6241033 95.0641377,11.6228462 L95.0641377,11.6228462 Z M76.1704473,12.3497992 C75.3407334,11.8402148 74.3868293,11.5878812 73.4223253,11.6228462 C71.7177584,11.6228462 70.6095086,12.4690194 70.6095086,13.85023 C70.6095086,14.9871844 71.4252254,15.6850592 72.9328952,15.9031451 L73.6220353,16.0049185 C74.4236881,16.121231 74.8062312,16.3393169 74.8062312,16.7318715 C74.8062312,17.2698167 74.271796,17.5780447 73.2704332,17.5780447 C72.4625659,17.6045745 71.6696861,17.3484316 71.0201798,16.8510918 L70.3535422,18.0287555 C71.2069467,18.6456022 72.229507,18.9626286 73.2704332,18.933085 C75.2140896,18.933085 76.3420292,17.9851383 76.3420292,16.662084 C76.3420292,15.4378952 75.4531791,14.7981767 73.9905143,14.5800908 L73.3013742,14.4783174 C72.6684905,14.391083 72.1593706,14.2602315 72.1593706,13.7949816 C72.1593706,13.2861145 72.6375495,12.9807943 73.4420151,12.9807943 C74.1790876,12.9920554 74.9012406,13.1972043 75.5403764,13.5768957 L76.1704473,12.3497992 Z M115.414867,11.6228462 C114.686967,11.6009117 114.005838,11.9925921 113.63998,12.6434881 L113.63998,11.7973149 L112.188566,11.7973149 L112.188566,18.7586163 L113.654044,18.7586163 L113.654044,14.8563329 C113.654044,13.6932082 114.132223,13.0651208 115.091393,13.0651208 C115.405172,13.0604285 115.71677,13.1197145 116.008371,13.2395895 L116.458422,11.811854 C116.123484,11.6880209 115.77058,11.6241033 115.414867,11.6228462 Z M96.5436793,15.2779656 C96.5436793,17.3890369 97.9669646,18.933085 100.135646,18.933085 C101.015035,18.9780621 101.878901,18.6814191 102.557482,18.1014508 L101.854277,16.8772621 C101.347692,17.2760792 100.730175,17.4953284 100.093454,17.5024416 C98.9233223,17.5024416 98.0654132,16.6126512 98.0654132,15.2750578 C98.0654132,13.9374644 98.9261351,13.062213 100.093454,13.047674 C100.730175,13.0547871 101.347692,13.2740363 101.854277,13.6728535 L102.557482,12.4486648 C101.878901,11.8686965 101.015035,11.5720535 100.135646,11.6170306 C97.9669646,11.6170306 96.5436793,13.1610786 96.5436793,15.27215 L96.5436793,15.2779656 Z M110.2646,15.2779656 L110.2646,11.7885915 L108.799122,11.7885915 L108.799122,12.6347647 C108.292137,11.9584538 107.499564,11.5780458 106.672633,11.6141228 C104.785232,11.6141228 103.297252,13.1436318 103.297252,15.2692422 C103.297252,17.3948526 104.776794,18.9243615 106.672633,18.9243615 C107.499564,18.9604386 108.292137,18.5800305 108.799122,17.9037196 L108.799122,18.746985 L110.2646,18.746985 L110.2646,15.2779656 Z M104.813361,15.2779656 C104.813361,14.0537768 105.586885,13.0505818 106.855466,13.0505818 C108.06779,13.0505818 108.883507,14.0130675 108.883507,15.2779656 C108.883507,16.5428637 108.06779,17.5053494 106.855466,17.5053494 C105.586885,17.5053494 104.813361,16.4992465 104.813361,15.2779656 Z M87.1319943,11.6228462 C85.1630226,11.6228462 83.7791167,13.108738 83.7791167,15.2779656 C83.7791167,17.4908103 85.2164661,18.933085 87.2304429,18.933085 C88.2360476,18.9695077 89.219389,18.6216858 89.992629,17.9560602 L89.2753607,16.8336449 C88.7159254,17.2963656 88.0228054,17.5522686 87.306389,17.5605978 C86.3612825,17.5605978 85.5033734,17.109887 85.2924122,15.8566201 L90.2936004,15.8566201 C90.3076645,15.6676124 90.3217286,15.4786046 90.3217286,15.2750578 C90.3217286,13.1058302 89.010956,11.6199384 87.1235559,11.6199384 L87.1319943,11.6228462 Z M87.1038662,12.9778865 C88.0489726,12.9778865 88.6537282,13.588527 88.8084331,14.6673251 L85.3177275,14.6673251 C85.4724324,13.6612223 86.063124,12.9778865 87.106679,12.9778865 L87.1038662,12.9778865 Z M123.853317,15.2779656 L123.853317,9 L122.38784,9 L122.38784,12.6405803 C121.880855,11.9642694 121.088282,11.5838614 120.26135,11.6199384 C118.37395,11.6199384 116.88597,13.1494474 116.88597,15.2750578 C116.88597,17.4006682 118.365512,18.9301772 120.26135,18.9301772 C121.088282,18.9662542 121.880855,18.5858462 122.38784,17.9095352 L122.38784,18.7528007 L123.853317,18.7528007 L123.853317,15.2779656 Z M125.566323,18.1159899 C125.624278,18.1157548 125.681682,18.1276234 125.735092,18.1508836 C125.786494,18.1735653 125.833265,18.2061275 125.87292,18.2468414 C125.912221,18.2867922 125.943733,18.3341757 125.965743,18.3864164 C126.011419,18.4959168 126.011419,18.6200377 125.965743,18.7295382 C125.943673,18.7817438 125.912168,18.8291161 125.87292,18.8691131 C125.833137,18.9096658 125.786398,18.9422063 125.735092,18.9650709 C125.681752,18.9885662 125.624301,19.0004445 125.566323,18.9999647 C125.390988,19.0022275 125.231403,18.8956817 125.161277,18.7295382 C125.115932,18.6199673 125.115932,18.4959872 125.161277,18.3864164 C125.205268,18.2796468 125.288115,18.1950467 125.391928,18.1508836 C125.448917,18.1263748 125.510242,18.1144879 125.571948,18.1159899 L125.566323,18.1159899 Z M125.566323,18.9010991 C125.610748,18.9018203 125.654826,18.8929051 125.695712,18.8749287 C125.734466,18.8575816 125.769758,18.8329302 125.799787,18.8022335 C125.929959,18.667198 125.929959,18.4487565 125.799787,18.3137211 C125.769887,18.2828626 125.734563,18.2581891 125.695712,18.2410258 C125.654778,18.2232121 125.610733,18.2143037 125.566323,18.2148555 C125.520996,18.2142347 125.476019,18.2231381 125.43412,18.2410258 C125.332278,18.2859787 125.258533,18.3800927 125.23714,18.492414 C125.215747,18.6047353 125.249476,18.7207246 125.327233,18.8022335 C125.358009,18.8333446 125.394301,18.8580272 125.43412,18.8749287 C125.477738,18.8936931 125.524728,18.9026153 125.571948,18.9010991 L125.566323,18.9010991 Z M125.591638,18.3486148 C125.633757,18.345564 125.675574,18.3579151 125.709777,18.3835086 C125.737858,18.4066929 125.753536,18.4423501 125.751969,18.4794663 C125.752996,18.5112898 125.740694,18.5420245 125.718215,18.5637929 C125.692425,18.5875101 125.659812,18.601813 125.625392,18.6045023 L125.754782,18.7586163 L125.65352,18.7586163 L125.532569,18.6045023 L125.49319,18.6045023 L125.49319,18.7586163 L125.408805,18.7586163 L125.408805,18.3515226 L125.591638,18.3486148 Z M125.49319,18.4242179 L125.49319,18.5347148 L125.591638,18.5347148 C125.609091,18.539965 125.627629,18.539965 125.645082,18.5347148 C125.658056,18.5256165 125.665515,18.5101942 125.664771,18.4940054 C125.665515,18.4778166 125.658056,18.4623943 125.645082,18.453296 C125.627629,18.4480458 125.609091,18.4480458 125.591638,18.453296 L125.49319,18.4242179 Z M118.407704,15.2779656 C118.407704,14.0537768 119.181229,13.0505818 120.449809,13.0505818 C121.662133,13.0505818 122.47785,14.0130675 122.47785,15.2779656 C122.47785,16.5428637 121.662133,17.5053494 120.449809,17.5053494 C119.181229,17.5053494 118.407704,16.4992465 118.407704,15.2779656 Z M68.9302569,15.2779656 L68.9302569,11.7885915 L67.4647794,11.7885915 L67.4647794,12.6347647 C66.9577745,11.9642962 66.1692403,11.5875667 65.3467284,11.6228462 C63.4593283,11.6228462 61.9713482,13.1523552 61.9713482,15.2779656 C61.9713482,17.403576 63.4508899,18.933085 65.3467284,18.933085 C66.1736595,18.969162 66.9662329,18.588754 67.4732179,17.9124431 L67.4732179,18.7557085 L68.9386954,18.7557085 L68.9302569,15.2779656 Z M63.479018,15.2779656 C63.479018,14.0537768 64.2525426,13.0505818 65.521123,13.0505818 C66.733447,13.0505818 67.5491639,14.0130675 67.5491639,15.2779656 C67.5491639,16.5428637 66.733447,17.5053494 65.521123,17.5053494 C64.2525426,17.5053494 63.479018,16.5021543 63.479018,15.2779656 L63.479018,15.2779656 Z" id="Shape" fill="#3B3B42" fill-rule="nonzero"></path>
                            <g id="_Group_" transform="translate(11.000000, 5.000000)" fill-rule="nonzero">
                                <rect id="Rectangle" fill="#FF5F00" x="12.1540678" y="2.46324324" width="8.80932203" height="16.065"></rect>
                                <path d="M12.7133898,10.5 C12.710956,7.36560852 14.1289245,4.40414801 16.5587288,2.46891892 C12.4308736,-0.822958278 6.50310789,-0.343467897 2.94130619,3.57041711 C-0.620495512,7.48430211 -0.620495512,13.5185357 2.94130619,17.4324207 C6.50310789,21.3463057 12.4308736,21.8257961 16.5587288,18.5339189 C14.1281512,16.5980753 12.7100962,13.6353873 12.7133898,10.5 Z" id="_Path_" fill="#EB001B"></path>
                                <path d="M32.8489834,10.5 C32.8489834,14.4114998 30.6478889,17.97959 27.1807451,19.6888888 C23.7136014,21.3981876 19.5890209,20.9486053 16.5587288,18.5310811 C18.987473,16.594209 20.4055481,13.6331423 20.4055481,10.4985811 C20.4055481,7.36401991 18.987473,4.40295313 16.5587288,2.46608108 C19.5894175,0.0482402421 23.7146394,-0.401118082 27.1820031,1.30889321 C30.6493668,3.0189045 32.8499642,6.58798819 32.8489834,10.5 Z" id="Path" fill="#F79E1B"></path>
                                <path d="M31.9181514,17.421151 L31.9181514,16.598456 L32.0742975,16.598456 L32.0742975,16.4353354 L31.6855932,16.4353354 L31.6855932,16.6055482 L31.8417394,16.6055482 L31.8417394,17.4282432 L31.9181514,17.421151 Z M32.6855932,17.421151 L32.6855932,16.4282432 L32.5826032,16.4282432 L32.4430683,17.1374631 L32.3035334,16.4282432 L32.1806098,16.4282432 L32.1806098,17.421151 L32.2503773,17.421151 L32.2503773,16.6764702 L32.3799454,17.3218603 L32.4696464,17.3218603 L32.5992145,16.6764702 L32.5992145,17.4282432 L32.6855932,17.421151 Z" id="Shape" fill="#F79E1B"></path>
                            </g>
                        </g>
                    </g>
                </g>
            </g>
        </g>
    </g>
</svg>