<?xml version="1.0" encoding="UTF-8"?>
<svg width="79px" height="20px" viewBox="0 0 79 20" version="1.1" xmlns="http://www.w3.org/2000/svg" xmlns:xlink="http://www.w3.org/1999/xlink">
    <title>70968D99-DF67-454A-B093-05A8C439373A</title>
    <g id="osman" stroke="none" stroke-width="1" fill="none" fill-rule="evenodd">
        <g id="Web-Home" transform="translate(-1152.000000, -2431.000000)" fill-rule="nonzero">
            <g id="Group-2" transform="translate(0.000000, 2026.000000)">
                <g id="Footer">
                    <g id="Group-11" transform="translate(919.000000, 400.000000)">
                        <g id="paypal" transform="translate(233.000000, 5.000000)">
                            <path d="M15.0269713,1.52837659 C14.065357,0.459304883 12.3214123,0 10.0885112,0 L3.61798755,0 C3.16162819,0 2.77046304,0.324681038 2.70526884,0.760228773 L0.0078591075,17.3743951 C-0.0491858114,17.6990761 0.211590961,18 0.553860474,18 L4.55515407,18 L5.55751479,11.8152222 L5.52491769,12.0052794 C5.59826116,11.5697316 5.98127704,11.2450506 6.43763639,11.2450506 L8.33641727,11.2450506 C12.0687848,11.2450506 14.986225,9.77210735 15.8418987,5.5116586 C15.8663466,5.38495381 15.8907944,5.26616806 15.9070929,5.13946326 C15.8011524,5.08402992 15.8011524,5.08402992 15.9070929,5.13946326 C16.1597204,3.57149142 15.9070929,2.49450066 15.0269713,1.52837659" id="path14499" fill="#003087"></path>
                            <path d="M54.6358735,9.04952077 L52.5532439,9.04952077 C52.3560252,9.04952077 52.1666952,9.15335463 52.0562527,9.31309904 L49.1847482,13.5942492 L47.9698809,9.48083067 C47.8909934,9.22523962 47.6622197,9.04952077 47.3940023,9.04952077 L45.3508164,9.04952077 C45.1062652,9.04952077 44.9327127,9.2971246 45.0116002,9.52875399 L47.307226,16.341853 L45.1535977,19.4249201 C44.987934,19.6645367 45.1535977,20 45.4454814,20 L47.528111,20 C47.7253297,20 47.9067709,19.9041534 48.0251022,19.7364217 L54.935646,9.62460064 C55.1013097,9.37699681 54.9277572,9.04952077 54.6358735,9.04952077 M40.7122322,13.1309904 C40.5150135,14.3290735 39.5762524,15.1357827 38.3771626,15.1357827 C37.7776177,15.1357827 37.2964041,14.9361022 36.9887429,14.5686901 C36.6810817,14.201278 36.5706392,13.6741214 36.6653042,13.0990415 C36.8546341,11.9089457 37.8091727,11.0782748 38.9845963,11.0782748 C39.5762524,11.0782748 40.0495773,11.2779553 40.3651273,11.6533546 C40.6806772,12.028754 40.8068972,12.5559105 40.7122322,13.1309904 M43.5995142,9.04952077 L41.5247733,9.04952077 C41.3512208,9.04952077 41.1934459,9.17731629 41.1697796,9.36102236 L41.0751146,9.94408946 L40.9331172,9.7284345 C40.4834585,9.06549521 39.4815874,8.84984026 38.4876051,8.84984026 C36.199868,8.84984026 34.2434583,10.6070288 33.8647984,13.0670927 C33.6675797,14.2971246 33.9515746,15.471246 34.6378958,16.2939297 C35.2689957,17.0447284 36.168313,17.3642173 37.2490716,17.3642173 C39.0950387,17.3642173 40.1205761,16.1661342 40.1205761,16.1661342 L40.0259111,16.7492013 C39.9943561,16.9728435 40.1600198,17.172524 40.3809048,17.172524 L42.2426494,17.172524 C42.5424219,17.172524 42.7869731,16.956869 42.8343056,16.6613419 L43.9545079,9.48083067 C43.9939516,9.24920128 43.8203992,9.04952077 43.5995142,9.04952077 M31.1668464,9.09744409 C30.9301839,10.6709265 29.7468716,10.6709265 28.5951143,10.6709265 L27.9403482,10.6709265 L28.3978956,7.73162939 C28.4215619,7.55591054 28.5793368,7.4201278 28.7528893,7.4201278 L29.0526618,7.4201278 C29.8336479,7.4201278 30.5673015,7.4201278 30.9538502,7.86741214 C31.1826239,8.14696486 31.2536226,8.54632588 31.1668464,9.09744409 M30.6698552,5 L26.346821,5 C26.0470485,5 25.8024973,5.21565495 25.7551648,5.51118211 L24.0038626,16.7412141 C23.9723076,16.9648562 24.1379714,17.1645367 24.3588563,17.1645367 L26.4257085,17.1645367 C26.7175922,17.1645367 26.9700321,16.9488818 27.0173646,16.6533546 L27.4906895,13.6261981 C27.538022,13.3306709 27.790462,13.115016 28.0823457,13.115016 L29.4549879,13.115016 C32.3028262,13.115016 33.9515746,11.7172524 34.3775671,8.95367412 C34.5747858,7.74760383 34.3854558,6.78913738 33.8253547,6.12619808 C33.2100323,5.38338658 32.1134962,5 30.6698552,5" id="path14519" fill="#002F86"></path>
                            <path d="M76.2634488,5.29457364 L74.4708939,16.3953488 C74.4390263,16.6124031 74.6063314,16.8062016 74.8294049,16.8062016 L76.6299267,16.8062016 C76.9247024,16.8062016 77.1796435,16.5968992 77.227445,16.3100775 L78.9960991,5.41085271 C79.0279667,5.19379845 78.8606616,5 78.6375881,5 L76.6219598,5 C76.4466877,5 76.2873495,5.12403101 76.2634488,5.29457364 M70.8778173,12.8914729 C70.6786445,14.0542636 69.7305822,14.8372093 68.5196118,14.8372093 C67.9141266,14.8372093 67.4281451,14.6434109 67.1174356,14.2868217 C66.8067261,13.9302326 66.6951893,13.4186047 66.7907922,12.8604651 C66.9819981,11.7054264 67.9459943,10.8992248 69.1330639,10.8992248 C69.7305822,10.8992248 70.2085968,11.0930233 70.5272732,11.4573643 C70.8459497,11.8217054 70.9734202,12.3333333 70.8778173,12.8914729 M73.7937065,8.93023256 L71.706376,8.93023256 C71.531104,8.93023256 71.3717658,9.05426357 71.347865,9.23255814 L71.2522621,9.79844961 L71.1088577,9.58914729 C70.6547438,8.94573643 69.6429462,8.73643411 68.6391155,8.73643411 C66.3287114,8.73643411 64.3529176,10.4418605 63.9705059,12.8294574 C63.7713332,14.0232558 64.0581419,15.1627907 64.7512631,15.9612403 C65.388616,16.6899225 66.2968438,17 67.3883105,17 C69.2525676,17 70.2882659,15.8372093 70.2882659,15.8372093 L70.192663,16.4031008 C70.1607954,16.620155 70.3281005,16.8139535 70.551174,16.8139535 L72.4233979,16.8139535 C72.7261405,16.8139535 72.9731148,16.6046512 73.0209162,16.3178295 L74.1522175,9.34883721 C74.1920521,9.12403101 74.01678,8.93023256 73.7937065,8.93023256 M61.2378556,8.97674419 C60.9988483,10.503876 59.8038117,10.503876 58.6406428,10.503876 L57.9793892,10.503876 L58.44147,7.65116279 C58.4653708,7.48062016 58.624709,7.34883721 58.799981,7.34883721 L59.1027236,7.34883721 C59.8914478,7.34883721 60.6323704,7.34883721 61.022749,7.78294574 C61.2537894,8.05426357 61.3254916,8.44186047 61.2378556,8.97674419 M60.7359403,5 L56.3700733,5 C56.0673307,5 55.8203565,5.20930233 55.772555,5.49612403 L54.0039009,16.3953488 C53.9720333,16.6124031 54.1393384,16.8062016 54.3624119,16.8062016 L56.6011137,16.8062016 C56.8082534,16.8062016 56.9914923,16.6589147 57.02336,16.4573643 L57.5252753,13.3643411 C57.5730768,13.0775194 57.8280179,12.8682171 58.1227936,12.8682171 L59.5090361,12.8682171 C62.3850907,12.8682171 64.050175,11.5116279 64.4803882,8.82945736 C64.679561,7.65891473 64.4883551,6.72868217 63.9227045,6.08527132 C63.3012854,5.37209302 62.1938849,5 60.7359403,5" id="path14523" fill="#009CDE"></path>
                            <path d="M15.0269713,1.52837659 C14.065357,0.459304883 12.3214123,0 10.0885112,0 L3.61798755,0 C3.16162819,0 2.77046304,0.324681038 2.70526884,0.760228773 L0.0078591075,17.3743951 C-0.0491858114,17.6990761 0.211590961,18 0.553860474,18 L4.55515407,18 L5.55751479,11.8152222 L5.52491769,12.0052794 C5.59826116,11.5697316 5.98127704,11.2450506 6.43763639,11.2450506 L8.33641727,11.2450506 C12.0687848,11.2450506 14.986225,9.77210735 15.8418987,5.5116586 C15.8663466,5.38495381 15.8907944,5.26616806 15.9070929,5.13946326 C15.8011524,5.08402992 15.8011524,5.08402992 15.9070929,5.13946326 C16.1597204,3.57149142 15.9070929,2.49450066 15.0269713,1.52837659" id="path14527" fill="#003087"></path>
                            <path d="M6.63659919,5.16886544 C6.67736632,4.90765172 6.85674172,4.6939314 7.08503767,4.58311346 C7.19103222,4.53562005 7.31333362,4.50395778 7.43563503,4.50395778 L12.51522,4.50395778 C13.1185736,4.50395778 13.68116,4.54353562 14.1866725,4.62269129 C14.3334342,4.64643799 14.4801959,4.6701847 14.6106507,4.70184697 C14.749259,4.73350923 14.8797138,4.7651715 15.0101686,4.80474934 C15.075396,4.82058047 15.1406235,4.84432718 15.2058509,4.86015831 C15.4586071,4.93931398 15.6950565,5.03430079 15.9070456,5.14511873 C16.1598018,3.56992084 15.9070456,2.50131926 15.0264755,1.52770449 C14.0643711,0.459102902 12.3195377,0 10.0854988,0 L3.61983123,0 C3.16323933,0 2.77187483,0.324538259 2.70664742,0.759894459 L0.00786311242,17.3746702 C-0.0492108759,17.6992084 0.211698785,18 0.554142715,18 L4.55747533,18 L5.56034684,11.817942 L6.63659919,5.16886544 L6.63659919,5.16886544 Z" id="path14531" fill="#002F86"></path>
                            <path d="M15.3059872,5 L15.3059872,5 C15.2901504,5.11792453 15.2663952,5.24371069 15.24264,5.36949686 C14.4112081,9.5990566 11.5764211,11.0613208 7.94979412,11.0613208 L6.10480706,11.0613208 C5.66137669,11.0613208 5.28921192,11.3836478 5.21794632,11.8160377 L4.27565679,17.7672956 L4.00643121,19.4575472 C3.95892082,19.740566 4.180636,20 4.47361678,20 L7.74391574,20 C8.13191731,20 8.46449009,19.7169811 8.51991888,19.3396226 L8.55159248,19.1745283 L9.16922764,15.2908805 L9.20881963,15.0786164 C9.27216683,14.7012579 9.5968212,14.418239 9.98482278,14.418239 L10.4757635,14.418239 C13.6510417,14.418239 16.1295007,13.1367925 16.8579935,9.4418239 C17.1588927,7.89308176 17.0005247,6.60377358 16.2007663,5.69968553 C15.9632143,5.40880503 15.6623152,5.18081761 15.3059872,5" id="path14535" fill="#009CDE"></path>
                            <path d="M14.1437549,5.28088701 C14.0180676,5.24392819 13.8923802,5.21436114 13.7588374,5.18479409 C13.6252946,5.15522703 13.4838963,5.13305174 13.3503535,5.11087645 C12.8554595,5.03695882 12.3134328,5 11.7321288,5 L6.83817753,5 C6.72034564,5 6.60251375,5.02217529 6.50039277,5.07391763 C6.27258445,5.17740232 6.1076198,5.37697994 6.0683425,5.62090813 L5.03142184,11.8225977 L5,12 C5.07069914,11.593453 5.43990573,11.2903907 5.87981147,11.2903907 L7.70227808,11.2903907 C11.3000786,11.2903907 14.1123331,9.9155227 14.9371563,5.93875396 C14.9607227,5.82048574 14.9842891,5.70960929 15,5.59134108 C14.7879026,5.48785639 14.5679497,5.39915523 14.3244305,5.32523759 C14.2615868,5.31784583 14.2065986,5.29567054 14.1437549,5.28088701" id="path14539" fill="#012069"></path>
                        </g>
                    </g>
                </g>
            </g>
        </g>
    </g>
</svg>