<?xml version="1.0" encoding="UTF-8"?>
<svg width="56px" height="18px" viewBox="0 0 56 18" version="1.1" xmlns="http://www.w3.org/2000/svg" xmlns:xlink="http://www.w3.org/1999/xlink">
    <title>D521ED6D-E137-4198-BE8F-3CC5BAEBCBB1</title>
    <g id="osman" stroke="none" stroke-width="1" fill="none" fill-rule="evenodd">
        <g id="Web-Home" transform="translate(-919.000000, -2433.000000)" fill-rule="nonzero">
            <g id="Group-2" transform="translate(0.000000, 2026.000000)">
                <g id="Footer">
                    <g id="Group-11" transform="translate(919.000000, 400.000000)">
                        <g id="visa" transform="translate(0.000000, 7.000000)">
                            <polygon id="polygon9" fill="#00579F" points="24.3065873 18 20 18 22.6936482 1 27 1"></polygon>
                            <path d="M41,0.741828634 C40.0794444,0.389269094 38.6193671,0 36.8139857,0 C32.2050824,0 28.9595304,2.37257049 28.9396237,5.76463181 C28.9013417,8.26728716 31.263344,9.65732275 33.0299329,10.4917876 C34.8355695,11.344484 35.4493583,11.9010402 35.4493583,12.6611005 C35.4309829,13.828415 33.9903019,14.3664933 32.646602,14.3664933 C30.7832872,14.3664933 29.7848914,14.0890775 28.2676462,13.4396387 L27.6530917,13.1612373 L27,17.0726526 C28.0946113,17.5540652 30.1113096,17.9812757 32.2050824,18 C37.1021219,18 40.2902508,15.6641391 40.3280225,12.0493567 C40.3466531,10.0658089 39.0994239,8.54593485 36.4104929,7.30396934 C34.7781464,6.50670682 33.7784746,5.96912127 33.7784746,5.15338078 C33.7976156,4.41179852 34.6239974,3.65223104 36.4666399,3.65223104 C37.9838851,3.61502874 39.0986583,3.96709554 39.9431603,4.31940871 L40.3652837,4.50443471 L41,0.741828634 L41,0.741828634 L41,0.741828634 Z" id="path11" fill="#00579F"></path>
                            <path d="M46.8987336,11.9776593 C47.2659443,11.0010181 48.6789497,7.22113033 48.6789497,7.22113033 C48.6604185,7.25742686 49.0454289,6.22646098 49.265609,5.59355514 L49.5772261,7.05839684 C49.5772261,7.05839684 50.4216157,11.1276954 50.6049772,11.9776593 C49.9081059,11.9776593 47.7794541,11.9776593 46.8987336,11.9776593 L46.8987336,11.9776593 Z M52.4027492,1 L48.9537482,1 C47.8901538,1 47.0820951,1.30719851 46.6232036,2.41051709 L40,18 L44.6786449,18 C44.6786449,18 45.4489096,15.9017717 45.6144714,15.4498678 C46.1277374,15.4498678 50.6791021,15.4498678 51.3393986,15.4498678 C51.4674104,16.0467175 51.8714397,18 51.8714397,18 L56,18 L52.4027492,1 L52.4027492,1 L52.4027492,1 Z" id="path13" fill="#00579F"></path>
                            <path d="M16.2021834,1 L11.7586763,12.6046795 L11.2731135,10.2511147 C10.4516019,7.53540744 7.8751667,4.58484904 5,3.11775114 L9.07009273,18 L13.8681574,18 L21,1 L16.2021834,1 L16.2021834,1 L16.2021834,1 Z" id="path15" fill="#00579F"></path>
                            <path d="M7.36446977,1 L0.0745787909,1 L0,1.33449505 C5.68657086,2.7082889 9.45267592,6.01976644 11,10 L9.41526264,2.39158366 C9.15436075,1.33426097 8.35257681,1.03487737 7.36446977,1 L7.36446977,1 Z" id="path17" fill="#FAA61A"></path>
                        </g>
                    </g>
                </g>
            </g>
        </g>
    </g>
</svg>