<?xml version="1.0" encoding="UTF-8"?>
<svg width="27px" height="24px" viewBox="0 0 27 24" version="1.1" xmlns="http://www.w3.org/2000/svg" xmlns:xlink="http://www.w3.org/1999/xlink">
    <title>A41424D8-2427-477C-B265-8A7F8DB794F1</title>
    <g id="osman" stroke="none" stroke-width="1" fill="none" fill-rule="evenodd">
        <g id="Web-Home" transform="translate(-1188.000000, -774.000000)">
            <g id="Group-18" transform="translate(705.000000, 707.000000)">
                <g id="Group-3-Copy" transform="translate(483.000000, 67.000000)">
                    <path d="M14.2522083,0.75 L8.9735982,0.75 C6.06568053,0.75 5.00065847,1.02626449 3.93473918,1.59632436 C2.92663303,2.13546543 2.13546543,2.92663303 1.59632436,3.93473918 C1.02626449,5.00065847 0.75,6.06568053 0.75,8.9735982 L0.75,14.2522083 C0.75,17.1601259 1.02626449,18.225148 1.59632436,19.2910673 C2.13546543,20.2991734 2.92663303,21.090341 3.93473918,21.6294821 C5.00065847,22.199542 6.06568053,22.4758065 8.9735982,22.4758065 L14.2522083,22.4758065 C17.1601259,22.4758065 18.225148,22.199542 19.2910673,21.6294821 C20.2991734,21.090341 21.090341,20.2991734 21.6294821,19.2910673 C22.199542,18.225148 22.4758065,17.1601259 22.4758065,14.2522083 L22.4758065,8.9735982 C22.4758065,6.06568053 22.199542,5.00065847 21.6294821,3.93473918 C21.090341,2.92663303 20.2991734,2.13546543 19.2910673,1.59632436 C18.225148,1.02626449 17.1601259,0.75 14.2522083,0.75 Z" id="Rectangle" stroke="#007AFF" stroke-width="1.5"></path>
                    <rect id="Rectangle" fill="#1C1C1E" x="17.8064516" y="12.3870968" width="8.51612903" height="11.6129032"></rect>
                    <path d="M22.4516129,14.7096774 C22.8791882,14.7096774 23.2258065,15.0562957 23.2258065,15.483871 L23.2256439,17.4189799 L25.1612903,17.4193548 C25.5888656,17.4193548 25.9354839,17.7659731 25.9354839,18.1935484 C25.9354839,18.6211237 25.5888656,18.9677419 25.1612903,18.9677419 L23.2256439,18.9669799 L23.2258065,20.9032258 C23.2258065,21.3308011 22.8791882,21.6774194 22.4516129,21.6774194 C22.0240376,21.6774194 21.6774194,21.3308011 21.6774194,20.9032258 L21.6766439,18.9669799 L19.7419355,18.9677419 C19.3143602,18.9677419 18.9677419,18.6211237 18.9677419,18.1935484 C18.9677419,17.7659731 19.3143602,17.4193548 19.7419355,17.4193548 L21.6766439,17.4189799 L21.6774194,15.483871 C21.6774194,15.0562957 22.0240376,14.7096774 22.4516129,14.7096774 Z M13.1612903,11.0075283 C14.8715915,11.0075283 16.2580645,12.3940013 16.2580645,14.1043025 L16.257938,15.9191341 C16.258138,16.3648935 16.2117755,16.5265366 16.1246653,16.6894996 C16.0375551,16.8524625 15.909681,16.9803568 15.7467274,17.0675103 C15.5837738,17.1546639 15.4221292,17.2010767 14.9763698,17.2010767 L8.24965863,17.1992179 C7.80396259,17.1989073 7.64235412,17.152421 7.47941855,17.0652097 C7.31648297,16.9779983 7.18860365,16.8500873 7.10143269,16.6871301 C7.01426173,16.5241729 6.96781547,16.3625529 6.96761535,15.9168568 L6.96774194,14.1031509 C6.96774194,12.3934858 8.35369939,11.0075283 10.0633646,11.0075283 L13.1612903,11.0075283 Z M11.6129032,4.81397992 C12.8956291,4.81397992 13.9354839,5.8538347 13.9354839,7.13656057 C13.9354839,8.41880953 12.8960157,9.4582777 11.6137667,9.4582777 L11.6120394,9.45827722 C10.329651,9.45780035 9.29032258,8.4180854 9.29032258,7.13569689 C9.29032258,5.85344802 10.3297907,4.81397992 11.6120396,4.81397992 L11.6129032,4.81397992 Z" id="Combined-Shape" fill="#007AFF"></path>
                </g>
            </g>
        </g>
    </g>
</svg>