<?xml version="1.0" encoding="UTF-8"?>
<svg width="24px" height="28px" viewBox="0 0 24 28" version="1.1" xmlns="http://www.w3.org/2000/svg" xmlns:xlink="http://www.w3.org/1999/xlink">
    <title>E84B50F6-64E9-4706-91B7-FA4D938D06C0</title>
    <g id="osman" stroke="none" stroke-width="1" fill="none" fill-rule="evenodd">
        <g id="Web-Home" transform="translate(-1131.000000, -2183.000000)" fill="#F2F2F2" fill-rule="nonzero">
            <g id="Group-2" transform="translate(0.000000, 2026.000000)">
                <g id="Footer">
                    <g id="Group-10" transform="translate(188.000000, 157.000000)">
                        <g id="icons8-apple_logo" transform="translate(943.000000, 0.000000)">
                            <path d="M22.565,9.785 C22.442,9.862 19.514,11.487 19.514,15.09 C19.652,19.199 23.209,20.64 23.27,20.64 C23.209,20.717 22.733,22.603 21.323,24.58 C20.204,26.283 18.962,28 17.076,28 C15.282,28 14.638,26.865 12.568,26.865 C10.345,26.865 9.716,28 8.014,28 C6.128,28 4.794,26.191 3.614,24.504 C2.081,22.296 0.778,18.831 0.732,15.504 C0.701,13.741 1.039,12.008 1.897,10.536 C3.108,8.481 5.27,7.086 7.631,7.04 C9.44,6.979 11.05,8.282 12.154,8.282 C13.212,8.282 15.19,7.04 17.428,7.04 C18.394,7.041 20.97,7.332 22.565,9.785 Z M12.001,6.688 C11.679,5.078 12.568,3.468 13.396,2.441 C14.454,1.199 16.125,0.356 17.566,0.356 C17.658,1.966 17.075,3.545 16.033,4.695 C15.098,5.937 13.488,6.872 12.001,6.688 Z" id="Shape"></path>
                        </g>
                    </g>
                </g>
            </g>
        </g>
    </g>
</svg>