<?xml version="1.0" encoding="UTF-8"?>
<svg width="24px" height="21px" viewBox="0 0 24 21" version="1.1" xmlns="http://www.w3.org/2000/svg" xmlns:xlink="http://www.w3.org/1999/xlink">
    <title>E735CB91-793A-44AF-86BE-1B0DE87BB02D</title>
    <g id="osman" stroke="none" stroke-width="1" fill="none" fill-rule="evenodd" fill-opacity="0.5">
        <g id="Web-Home" transform="translate(-1206.000000, -30.000000)" fill="#6D7278">
            <g id="Group-21">
                <path d="M1229.97815,50.0805395 L1226.67071,30.6142225 C1226.61042,30.2592946 1226.30596,30 1225.9496,30 L1209.85336,30 C1209.49427,30 1209.18844,30.2632382 1209.13108,30.6215182 L1206.00938,50.1425533 C1205.97514,50.356496 1206.03562,50.5748752 1206.17454,50.7399167 C1206.31345,50.9049582 1206.51724,51 1206.73166,51 L1229.2664,51 C1229.26699,51 1229.26777,51 1229.26777,51 C1229.67242,51 1230,50.6690297 1230,50.2605669 C1230,50.1983559 1229.99249,50.1381167 1229.97815,50.0805395 Z M1222.87873,35.0876944 C1222.23576,36.3873221 1220.86729,37.9365825 1217.99903,37.9365825 C1215.13078,37.9365825 1213.7624,36.3873221 1213.11943,35.0876944 C1212.44622,33.7271374 1212.43851,32.3737776 1212.43851,32.3168905 C1212.43851,31.9084277 1212.766,31.5774574 1213.17016,31.5774574 C1213.57354,31.5774574 1213.90064,31.9074417 1213.90181,32.3148201 C1213.9021,32.3391721 1213.91849,33.4234769 1214.44869,34.4674579 C1215.11956,35.7880855 1216.3141,36.4577162 1217.99903,36.4577162 C1222.04963,36.4577162 1222.09626,32.4859742 1222.09626,32.3168905 C1222.09626,31.9084277 1222.42374,31.5774574 1222.82791,31.5774574 C1223.23207,31.5774574 1223.55955,31.9084277 1223.55955,32.3168905 C1223.55955,32.3737776 1223.55185,33.7271374 1222.87873,35.0876944 Z" id="inc-shopping"></path>
            </g>
        </g>
    </g>
</svg>