<?xml version="1.0" encoding="UTF-8"?>
<svg width="19px" height="16px" viewBox="0 0 19 16" version="1.1" xmlns="http://www.w3.org/2000/svg" xmlns:xlink="http://www.w3.org/1999/xlink">
    <title>64979602-D4A0-45A4-B0C3-0CDE30464A7A</title>
    <g id="osman" stroke="none" stroke-width="1" fill="none" fill-rule="evenodd">
        <g id="Web-Home" transform="translate(-637.000000, -925.000000)" fill="#646971" fill-rule="nonzero">
            <g id="Group-16" transform="translate(189.000000, 707.000000)">
                <g id="POST-Copy-17" transform="translate(0.000000, 45.000000)">
                    <g id="Group-7" transform="translate(15.995575, 165.000000)">
                        <g id="Group-3-Copy" transform="translate(432.946903, 8.000000)">
                            <path d="M12.3557457,15.0588235 C12.0479451,15.0588235 11.8023264,14.9496645 11.4641258,14.680278 L8.38931522,12.1357685 L3.17944029,12.1357685 C1.15687555,12.1357685 0,11.0741614 0,9.27815491 L0,2.87215611 C0,1.06160707 1.15687555,0 3.17944029,0 L13.8825066,0 C15.849982,0 17.0619469,1.05433579 17.0619469,2.87215611 L17.0619469,9.27815491 C17.0619469,11.0523475 15.8814616,12.1357685 13.9848153,12.1357685 L13.1427359,12.1357685 L13.1427359,14.2371687 C13.1427359,14.7388872 12.8515495,15.0588235 12.3557457,15.0588235 Z" id="icn-comments"></path>
                        </g>
                    </g>
                </g>
            </g>
        </g>
    </g>
</svg>