<?xml version="1.0" encoding="UTF-8"?>
<svg width="17px" height="12px" viewBox="0 0 17 12" version="1.1" xmlns="http://www.w3.org/2000/svg" xmlns:xlink="http://www.w3.org/1999/xlink">
    <title>8843EE56-6CDE-45F9-AFB4-925C20365C67</title>
    <g id="osman" stroke="none" stroke-width="1" fill="none" fill-rule="evenodd">
        <g id="Web-Home" transform="translate(-518.000000, -99.000000)" fill="#F7B500">
            <g id="Group-21">
                <g id="Group-4" transform="translate(308.000000, 79.000000)">
                    <path d="M215.768752,23.9470409 C215.768752,25.0603088 214.807293,26.0217675 213.694025,26.0217675 C212.530154,26.0217675 211.619299,25.0603088 211.619299,23.9470409 C211.619299,22.7831698 212.530154,21.8723143 213.694025,21.8723143 C214.807293,21.8723143 215.768752,22.7831698 215.768752,23.9470409 Z M224.42188,23.9470409 C224.42188,25.0603088 223.511025,26.0217675 222.347154,26.0217675 C221.233886,26.0217675 220.32303,25.0603088 220.32303,23.9470409 C220.32303,22.7831698 221.233886,21.8723143 222.347154,21.8723143 C223.511025,21.8723143 224.42188,22.7831698 224.42188,23.9470409 Z M214.807293,23.9470409 C214.807293,24.5542779 214.301262,25.0097057 213.694025,25.0097057 C213.086788,25.0097057 212.580757,24.5542779 212.580757,23.9470409 C212.580757,23.3398038 213.086788,22.8337729 213.694025,22.8337729 C214.301262,22.8337729 214.807293,23.3398038 214.807293,23.9470409 Z M223.460421,23.9470409 C223.460421,24.5542779 222.954391,25.0097057 222.347154,25.0097057 C221.79052,25.0097057 221.284489,24.5542779 221.284489,23.9470409 C221.284489,23.3398038 221.79052,22.8337729 222.347154,22.8337729 C222.954391,22.8337729 223.460421,23.3398038 223.460421,23.9470409 Z M222.802581,20 C224.573689,20 226.041179,21.4674896 226.041179,23.2892007 L226.041179,30.6772516 C225.990576,32.043535 224.118262,32.4989628 223.1062,31.3350917 L221.183282,28.045891 L214.9085,28.045891 L212.934979,31.3350917 C211.97352,32.4989628 210.101206,32.043535 210,30.6772516 L210,23.2892007 C210,21.4674896 211.46749,20 213.289201,20 L222.802581,20 Z" id="inc-games"></path>
                </g>
            </g>
        </g>
    </g>
</svg>