<?xml version="1.0" encoding="UTF-8"?>
<svg width="20px" height="24px" viewBox="0 0 20 24" version="1.1" xmlns="http://www.w3.org/2000/svg" xmlns:xlink="http://www.w3.org/1999/xlink">
    <title>0944E25A-7CE1-4822-894F-FF286A200A3D</title>
    <g id="osman" stroke="none" stroke-width="1" fill="none" fill-rule="evenodd">
        <g id="Web-Home" transform="translate(-1013.000000, -2187.000000)" fill="#F2F2F2" fill-rule="nonzero">
            <g id="Group-2" transform="translate(0.000000, 2026.000000)">
                <g id="Footer">
                    <g id="Group-10" transform="translate(188.000000, 157.000000)">
                        <g id="icons8-google_play" transform="translate(825.000000, 4.000000)">
                            <path d="M1.6230469,0.2109375 L12,10.585938 L14.677734,7.908203 C11.018734,5.6882031 6.118063,2.7100938 3.9140625,1.3710938 L2.4375,0.4765625 C2.1765,0.3175625 1.8970469,0.2319375 1.6230469,0.2109375 Z M0.0390625,1.453125 C0.0180625,1.567125 0,1.6816875 0,1.8046875 L0,22.308594 C0,22.394594 0.0172969,22.474641 0.0292969,22.556641 L10.585938,12 L0.0390625,1.453125 Z M16.4375,8.976562 L13.414062,12 L16.384766,14.970703 C17.958766,14.016703 19.048922,13.35425 19.169922,13.28125 C19.704922,12.95425 20.007047,12.460875 19.998047,11.921875 C19.990047,11.392875 19.687828,10.919906 19.173828,10.628906 C19.058828,10.562906 17.9835,9.913563 16.4375,8.976562 Z M12,13.414062 L1.6542969,23.759766 C1.8552969,23.724766 2.0560469,23.664828 2.2480469,23.548828 C2.5140469,23.386828 9.7,19.027062 14.625,16.039062 L12,13.414062 Z" id="Shape"></path>
                        </g>
                    </g>
                </g>
            </g>
        </g>
    </g>
</svg>