<?xml version="1.0" encoding="UTF-8"?>
<svg width="31px" height="30px" viewBox="0 0 31 30" version="1.1" xmlns="http://www.w3.org/2000/svg" xmlns:xlink="http://www.w3.org/1999/xlink">
    <title>87FEB6A6-F780-4EE7-924F-9BB06E867AD8</title>
    <g id="osman" stroke="none" stroke-width="1" fill="none" fill-rule="evenodd">
        <g id="Web-Home" transform="translate(-284.000000, -1100.000000)">
            <g id="Group-16" transform="translate(189.000000, 707.000000)">
                <g id="POST-Copy-18" transform="translate(0.000000, 268.000000)">
                    <g id="Group-7" transform="translate(15.995575, 125.000000)">
                        <g id="Group-3" transform="translate(79.622749, 0.000000)">
                            <path d="M20.8849326,0.75 L8.9735982,0.75 C6.06568053,0.75 5.00065847,1.02626449 3.93473918,1.59632436 C2.92663303,2.13546543 2.13546543,2.92663303 1.59632436,3.93473918 C1.02626449,5.00065847 0.75,6.06568053 0.75,8.9735982 L0.75,21.0264018 C0.75,23.9343195 1.02626449,24.9993415 1.59632436,26.0652608 C2.13546543,27.073367 2.92663303,27.8645346 3.93473918,28.4036756 C5.00065847,28.9737355 6.06568053,29.25 8.9735982,29.25 L20.8849326,29.25 C23.7928503,29.25 24.8578723,28.9737355 25.9237916,28.4036756 C26.9318978,27.8645346 27.7230654,27.073367 28.2622064,26.0652608 C28.8322663,24.9993415 29.1085308,23.9343195 29.1085308,21.0264018 L29.1085308,8.9735982 C29.1085308,6.06568053 28.8322663,5.00065847 28.2622064,3.93473918 C27.7230654,2.92663303 26.9318978,2.13546543 25.9237916,1.59632436 C24.8578723,1.02626449 23.7928503,0.75 20.8849326,0.75 Z" id="Rectangle" stroke="#646971" stroke-width="1.5" opacity="0.5"></path>
                            <path d="M19.5858735,10.4638763 C19.7910868,10.2164536 20.1811972,10.1958351 20.4274532,10.4226392 C20.6942304,10.6288247 20.7145465,10.9999588 20.5093333,11.2473814 L20.5093333,11.2473814 L17.2259209,15.0205773 C17.1029982,15.1649072 17.1233143,15.4123299 17.2671688,15.5360412 C17.4108181,15.6597526 17.657074,15.639134 17.780202,15.4948041 L17.780202,15.4948041 L21.5561262,11.1442887 C21.7613394,10.896866 22.1510394,10.8762474 22.3975006,11.1030515 C22.6640726,11.3092371 22.6847991,11.6803711 22.4795859,11.9277938 L22.4795859,11.9277938 L18.6831404,16.2989278 C18.5598072,16.4432577 18.5805337,16.6906804 18.724183,16.8143918 C18.8676271,16.9381031 19.1140882,16.9174845 19.2372162,16.7731546 L19.2372162,16.7731546 L22.5206285,12.9999588 C22.7258418,12.7525361 23.115747,12.7319175 23.3620029,12.9587216 C23.6082589,13.1855258 23.6493015,13.5566598 23.4440882,13.8040825 L23.4440882,13.8040825 L20.1606759,17.5772784 C20.037548,17.7216082 20.0580693,17.9690309 20.2015134,18.0927423 C20.3453679,18.2164536 20.5916238,18.1958351 20.7145465,18.0515052 L20.7145465,18.0515052 L23.0952257,15.3092371 C23.3004389,15.082433 23.6698228,15.0618144 23.9160788,15.2886186 C24.182856,15.5154227 24.2238987,15.8659381 24.0186854,16.1133608 L24.0186854,16.1133608 L19.7910868,20.9793402 C18.9702337,21.9277938 17.8212446,22.4638763 16.528401,22.5051134 L16.528401,22.5051134 L16.4463157,22.5051134 L14.7635669,24.4432577 C14.5993963,24.6288247 14.332619,24.6494433 14.1479271,24.4844948 L14.1479271,24.4844948 L10.5772162,21.3504742 C10.3925243,21.1855258 10.3720029,20.9174845 10.5361735,20.7319175 L10.5361735,20.7319175 L12.0547517,18.9999588 L12.0342304,18.9174845 C11.7674532,17.5154227 12.1163157,16.0927423 13.0397754,15.0411959 L13.0397754,15.0411959 L15.4202494,12.2989278 C15.6254626,12.0721237 15.9946413,12.0515052 16.2411025,12.2783093 C16.4873584,12.5051134 16.528401,12.8762474 16.3231878,13.1030515 L16.3231878,13.1030515 L14.517311,15.1855258 C14.394183,15.3298557 14.4147043,15.5772784 14.5583536,15.7009897 C14.7020029,15.824701 14.9482589,15.8040825 15.0713868,15.6597526 L15.0713868,15.6597526 Z M15.1534516,9.55663918 C15.3586649,9.30921649 15.7485701,9.30921649 15.994826,9.51540206 C16.2410819,9.72158763 16.2821246,10.0927216 16.0769113,10.3401443 L16.0769113,10.3401443 L12.4446364,14.5050928 C11.4185701,15.6803505 10.9876222,17.2061237 11.2133568,18.7525155 L11.2133568,18.7525155 L9.94103454,20.216433 C9.48956534,20.7318969 9.55112933,21.5154021 10.0641625,21.9483918 L10.0641625,21.9483918 L10.9671009,22.7525155 L10.2898971,23.5566392 C10.1257265,23.7424124 9.85894923,23.7628247 9.67425729,23.5978763 L9.67425729,23.5978763 L6.12406771,20.4844742 C5.93937577,20.3195258 5.91885444,20.0514845 6.08302506,19.8659175 L6.08302506,19.8659175 L7.60160326,18.1133402 L7.58108193,18.030866 C7.29378335,16.6081856 7.66316724,15.2061237 8.56610563,14.1545773 L8.56610563,14.1545773 L11.0081435,11.3916907 C11.2133568,11.144268 11.5827407,11.144268 11.8289966,11.3504536 C12.0752525,11.5566392 12.1162952,11.9277732 11.9110819,12.1751959 L11.9110819,12.1751959 L10.1052052,14.2576701 C9.96155587,14.4226186 9.98207719,14.6494227 10.1257265,14.773134 C10.2898971,14.9174639 10.5156317,14.8968454 10.6387597,14.7525155 L10.6387597,14.7525155 Z M17.1233553,10.2371134 C17.3285686,10.0103093 17.6981577,9.98969072 17.9442084,10.2164948 C18.1904643,10.4226804 18.2317122,10.7938144 18.0264989,11.0412371 L18.0264989,11.0412371 L17.1233553,12.0721649 C17.0414752,11.9072165 16.9181421,11.7628866 16.774698,11.6391753 C16.5900061,11.4742268 16.3847928,11.371134 16.1795795,11.3298969 L16.1795795,11.3298969 Z M12.5472225,6.03086598 C12.7934785,5.88653608 13.1012984,5.96901031 13.2449477,6.21643299 L13.2449477,6.21643299 L14.0863221,7.68035052 C14.2299714,7.9277732 14.1478861,8.23705155 13.9016301,8.38138144 C13.8400662,8.42261856 13.7374595,8.44323711 13.6553742,8.44323711 C13.4706823,8.44323711 13.3065116,8.34014433 13.203905,8.17519588 L13.203905,8.17519588 L12.3625306,6.73189691 C12.2188813,6.48447423 12.3009666,6.17519588 12.5472225,6.03086598 Z M19.4629508,6.19581443 C19.6066001,5.94839175 19.91442,5.86591753 20.1606759,6.01024742 C20.4067266,6.15457732 20.4890171,6.46385567 20.3453679,6.71127835 L20.3453679,6.71127835 L19.5039934,8.17519588 C19.4013868,8.36076289 19.2372162,8.44323711 19.0525243,8.44323711 C18.9499176,8.44323711 18.8676271,8.42261856 18.785747,8.38138144 C18.5394911,8.23705155 18.4572006,7.90715464 18.6215764,7.65973196 L18.6215764,7.65973196 Z M16.343627,5 C16.6309256,5 16.8566602,5.22680412 16.8566602,5.51546392 L16.8566602,5.51546392 L16.8566602,7.20618557 C16.8566602,7.49484536 16.6309256,7.72164948 16.343627,7.72164948 C16.0768498,7.72164948 15.8305938,7.49484536 15.8305938,7.20618557 L15.8305938,7.20618557 L15.8305938,5.51546392 C15.8305938,5.22680412 16.0565336,5 16.343627,5 Z" id="Combined-Shape" fill="#646971"></path>
                        </g>
                    </g>
                </g>
            </g>
        </g>
    </g>
</svg>