<?xml version="1.0" encoding="UTF-8"?>
<svg width="16px" height="12px" viewBox="0 0 16 12" version="1.1" xmlns="http://www.w3.org/2000/svg" xmlns:xlink="http://www.w3.org/1999/xlink">
    <title>237DD338-3E17-4395-99EB-3FB589E617E4</title>
    <g id="osman" stroke="none" stroke-width="1" fill="none" fill-rule="evenodd">
        <g id="Web-Home" transform="translate(-784.000000, -98.000000)" fill="#E02020" fill-rule="nonzero">
            <g id="Group-21">
                <path d="M786.727273,98 C786.124545,98 785.636364,98.4881818 785.636364,99.0909091 L785.636364,101.272727 L784,103.454545 C784,104.057273 784.488182,104.545455 785.090909,104.545455 C785.693636,104.545455 786.181818,104.057273 786.181818,103.454545 L787.272727,101.272727 L788.909091,101.272727 L788.363636,103.454545 C788.363636,104.057273 788.851818,104.545455 789.454545,104.545455 C790.057273,104.545455 790.545455,104.057273 790.545455,103.454545 L790.545455,101.272727 L792.727273,101.272727 L792.727273,103.454545 C792.727273,104.057273 793.215455,104.545455 793.818182,104.545455 C794.420909,104.545455 794.909091,104.057273 794.909091,103.454545 L794.363636,101.272727 L796,101.272727 L797.090909,103.454545 C797.090909,104.057273 797.579091,104.545455 798.181818,104.545455 C798.784545,104.545455 799.272727,104.057273 799.272727,103.454545 L797.636364,101.272727 L797.636364,99.0909091 C797.636364,98.4881818 797.148182,98 796.545455,98 L786.727273,98 Z M787.272727,99.0909091 C787.573818,99.0909091 787.818182,99.3352727 787.818182,99.6363636 C787.818182,99.9374545 787.573818,100.181818 787.272727,100.181818 C786.971636,100.181818 786.727273,99.9374545 786.727273,99.6363636 C786.727273,99.3352727 786.971636,99.0909091 787.272727,99.0909091 Z M789.454545,99.0909091 C789.755636,99.0909091 790,99.3352727 790,99.6363636 C790,99.9374545 789.755636,100.181818 789.454545,100.181818 C789.153455,100.181818 788.909091,99.9374545 788.909091,99.6363636 C788.909091,99.3352727 789.153455,99.0909091 789.454545,99.0909091 Z M785.636364,105.636364 L785.636364,108.909091 C785.636364,109.511818 786.124545,110 786.727273,110 L796.545455,110 C797.148182,110 797.636364,109.511818 797.636364,108.909091 L797.636364,105.636364 L796.545455,105.636364 L796.545455,108.909091 L786.727273,108.909091 L786.727273,105.636364 L785.636364,105.636364 Z" id="Shape-Copy"></path>
            </g>
        </g>
    </g>
</svg>