<?xml version="1.0" encoding="UTF-8"?>
<svg width="20px" height="21px" viewBox="0 0 20 21" version="1.1" xmlns="http://www.w3.org/2000/svg" xmlns:xlink="http://www.w3.org/1999/xlink">
    <title>C9120D56-B9FF-4602-A517-3953DF4CB35B</title>
    <g id="osman" stroke="none" stroke-width="1" fill="none" fill-rule="evenodd">
        <g id="Web-Home" transform="translate(-1095.000000, -29.000000)" fill="#414347" fill-rule="nonzero">
            <g id="Group-21">
                <g id="icons8-doorbell" transform="translate(1095.000000, 29.000000)">
                    <path d="M10.08,0 C9.1518,0 8.4,0.7518 8.4,1.68 L8.4,1.89984379 C5.50346899,2.64709024 3.36,5.27019772 3.36,8.4 L3.36,10.411406 C3.36,11.747006 3.0857006,13.05948 2.5741406,14.28 L17.5858595,14.28 C17.0742995,13.06032 16.8,11.747006 16.8,10.411406 L16.8,8.4 C16.8,5.27019772 14.6565308,2.64709024 11.76,1.89984379 L11.76,1.68 C11.76,0.7518 11.0082,0 10.08,0 Z M1.68,15.96 C1.37706583,15.9557158 1.09529165,16.1148752 0.942574314,16.3765332 C0.789856974,16.6381911 0.789856974,16.9618089 0.942574314,17.2234668 C1.09529165,17.4851248 1.37706583,17.6442842 1.68,17.64 L7.70765604,17.64 C7.61106854,17.9095769 7.56113487,18.1936444 7.56,18.48 C7.56,19.8717576 8.68824243,21 10.08,21 C11.4717576,21 12.6,19.8717576 12.6,18.48 C12.5993917,18.193739 12.5500133,17.9096742 12.4539845,17.64 L18.48,17.64 C18.7829342,17.6442842 19.0647083,17.4851248 19.2174257,17.2234668 C19.370143,16.9618089 19.370143,16.6381911 19.2174257,16.3765332 C19.0647083,16.1148752 18.7829342,15.9557158 18.48,15.96 L10.08,15.96 L1.68,15.96 Z" id="Shape"></path>
                </g>
            </g>
        </g>
    </g>
</svg>