<?xml version="1.0" encoding="UTF-8"?>
<svg width="30px" height="30px" viewBox="0 0 30 30" version="1.1" xmlns="http://www.w3.org/2000/svg" xmlns:xlink="http://www.w3.org/1999/xlink">
    <title>7BDCA84B-2D07-4C26-A38F-74E07C9AF211</title>
    <g id="osman" stroke="none" stroke-width="1" fill="none" fill-rule="evenodd">
        <g id="Web-Home" transform="translate(-205.000000, -1308.000000)">
            <g id="Group-16" transform="translate(189.000000, 707.000000)">
                <g id="POST-Copy-19" transform="translate(0.000000, 450.000000)">
                    <g id="Group-7" transform="translate(15.995575, 151.000000)">
                        <g id="repost">
                            <path d="M20.8895378,0.75 L8.9735982,0.75 C6.06568053,0.75 5.00065847,1.02626449 3.93473918,1.59632436 C2.92663303,2.13546543 2.13546543,2.92663303 1.59632436,3.93473918 C1.02626449,5.00065847 0.75,6.06568053 0.75,8.9735982 L0.75,21.0264018 C0.75,23.9343195 1.02626449,24.9993415 1.59632436,26.0652608 C2.13546543,27.073367 2.92663303,27.8645346 3.93473918,28.4036756 C5.00065847,28.9737355 6.06568053,29.25 8.9735982,29.25 L20.8895378,29.25 C23.7974555,29.25 24.8624775,28.9737355 25.9283968,28.4036756 C26.936503,27.8645346 27.7276706,27.073367 28.2668116,26.0652608 C28.8368715,24.9993415 29.113136,23.9343195 29.113136,21.0264018 L29.113136,8.9735982 C29.113136,6.06568053 28.8368715,5.00065847 28.2668116,3.93473918 C27.7276706,2.92663303 26.936503,2.13546543 25.9283968,1.59632436 C24.8624775,1.02626449 23.7974555,0.75 20.8895378,0.75 Z" id="Rectangle-Copy-3" stroke="#646971" stroke-width="1.5" opacity="0.5"></path>
                            <path d="M16.0203282,18.5 L11.2919983,18.5 L11.2919983,14.9375 L13.065122,14.9375 C13.6981272,14.9375 14.2472045,14.4345938 14.2472045,13.75 C14.2472045,13.3046875 14.0161073,13.0173125 13.6561632,12.5625 L11.2919983,9.705375 C10.9320542,9.27846875 10.5904324,9 10.1099158,9 C9.62939931,9 9.28777748,9.27846875 8.92783337,9.705375 L6.56366843,12.5625 C6.20372432,13.0173125 5.9726272,13.3046875 5.9726272,13.75 C5.9726272,14.4345938 6.52170451,14.9375 7.15470967,14.9375 L8.92783337,14.9375 L8.92783337,19.6875 C8.92783337,20.343 9.45740631,20.875 10.1099158,20.875 L16.0203282,20.875 C16.6728377,20.875 17.2024106,20.343 17.2024106,19.6875 C17.2024106,19.032 16.6728377,18.5 16.0203282,18.5 Z M23.7038642,14.9375 L21.9307405,14.9375 L21.9307405,10.1875 C21.9307405,9.532 21.4011676,9 20.748658,9 L14.8382457,9 C14.1857362,9 13.6561632,9.532 13.6561632,10.1875 C13.6561632,10.843 14.1857362,11.375 14.8382457,11.375 L19.5665756,11.375 L19.5665756,14.9375 L17.7934519,14.9375 C17.1604467,14.9375 16.6113694,15.4404063 16.6113694,16.125 C16.6113694,16.5703125 16.8424665,16.8576875 17.2024106,17.3125 L19.5665756,20.1702188 C19.9265197,20.5965312 20.2687326,20.875 20.748658,20.875 C21.2285835,20.875 21.5707964,20.5965312 21.9307405,20.169625 L24.2949054,17.3125 C24.6548495,16.8576875 24.8859467,16.5703125 24.8859467,16.125 C24.8859467,15.4404063 24.3368694,14.9375 23.7038642,14.9375 Z" id="Shape" fill="#646971" fill-rule="nonzero"></path>
                        </g>
                    </g>
                </g>
            </g>
        </g>
    </g>
</svg>