<?xml version="1.0" encoding="UTF-8"?>
<svg width="22px" height="22px" viewBox="0 0 22 22" version="1.1" xmlns="http://www.w3.org/2000/svg" xmlns:xlink="http://www.w3.org/1999/xlink">
    <title>A8C9B7FF-D086-4889-81A1-1BA02927165A</title>
    <g id="osman" stroke="none" stroke-width="1" fill="none" fill-rule="evenodd" opacity="0.5">
        <g id="Web-Home" transform="translate(-882.000000, -30.000000)" fill="#8E8E93" fill-rule="nonzero">
            <g id="Group-21">
                <g id="search-and-filter-bar" transform="translate(306.000000, 19.000000)">
                    <path d="M584.899527,28.7990531 C586.832194,28.7990531 588.614413,28.1741189 590.072593,27.1325618 L595.558127,32.6180957 C595.81273,32.8726986 596.148343,33 596.507102,33 C597.259337,33 597.791689,32.4213572 597.791689,31.6806944 C597.791689,31.3335087 597.67596,31.0094687 597.421357,30.7548659 L591.970542,25.2924776 C593.116255,23.7880063 593.799053,21.9247764 593.799053,19.8995266 C593.799053,15.0042083 589.794845,11 584.899527,11 C580.004208,11 576,15.0042083 576,19.8995266 C576,24.7948448 580.004208,28.7990531 584.899527,28.7990531 Z M584.899527,26.877959 C581.080484,26.877959 577.921094,23.7185692 577.921094,19.8995266 C577.921094,16.080484 581.080484,12.9210942 584.899527,12.9210942 C588.718569,12.9210942 591.877959,16.080484 591.877959,19.8995266 C591.877959,23.7185692 588.718569,26.877959 584.899527,26.877959 Z" id="icn-search"></path>
                </g>
            </g>
        </g>
    </g>
</svg>