<?xml version="1.0" encoding="UTF-8"?>
<svg width="31px" height="30px" viewBox="0 0 31 30" version="1.1" xmlns="http://www.w3.org/2000/svg" xmlns:xlink="http://www.w3.org/1999/xlink">
    <title>DE6E878B-031E-4C89-84F5-56F9318915F3</title>
    <g id="osman" stroke="none" stroke-width="1" fill="none" fill-rule="evenodd">
        <g id="Web-Home" transform="translate(-244.000000, -1308.000000)">
            <g id="Group-16" transform="translate(189.000000, 707.000000)">
                <g id="POST-Copy-19" transform="translate(0.000000, 450.000000)">
                    <g id="Group-7" transform="translate(15.995575, 151.000000)">
                        <g id="Group-6" transform="translate(39.817515, 0.000000)">
                            <path d="M20.8895378,0.75 L8.9735982,0.75 C6.06568053,0.75 5.00065847,1.02626449 3.93473918,1.59632436 C2.92663303,2.13546543 2.13546543,2.92663303 1.59632436,3.93473918 C1.02626449,5.00065847 0.75,6.06568053 0.75,8.9735982 L0.75,21.0264018 C0.75,23.9343195 1.02626449,24.9993415 1.59632436,26.0652608 C2.13546543,27.073367 2.92663303,27.8645346 3.93473918,28.4036756 C5.00065847,28.9737355 6.06568053,29.25 8.9735982,29.25 L20.8895378,29.25 C23.7974555,29.25 24.8624775,28.9737355 25.9283968,28.4036756 C26.936503,27.8645346 27.7276706,27.073367 28.2668116,26.0652608 C28.8368715,24.9993415 29.113136,23.9343195 29.113136,21.0264018 L29.113136,8.9735982 C29.113136,6.06568053 28.8368715,5.00065847 28.2668116,3.93473918 C27.7276706,2.92663303 26.936503,2.13546543 25.9283968,1.59632436 C24.8624775,1.02626449 23.7974555,0.75 20.8895378,0.75 Z" id="Rectangle-Copy-3" stroke="#646971" stroke-width="1.5" opacity="0.5"></path>
                            <path d="M14.9352133,12.1316329 C15.2487061,12.1316329 15.5111652,11.867971 15.5111652,11.5603653 L15.5111652,9.42909771 L15.467422,8.33050616 L17.0640483,10.036985 C17.1661157,10.1541681 17.3192169,10.2127597 17.4577369,10.2127597 C17.7566487,10.2127597 17.9899457,9.99304137 17.9899457,9.69275968 C17.9899457,9.53895687 17.9243309,9.42177377 17.814973,9.31191461 L15.3507735,6.92430898 C15.2049629,6.77783011 15.0810239,6.7265625 14.9352133,6.7265625 C14.7821121,6.7265625 14.6581731,6.77783011 14.5123625,6.92430898 L12.048163,9.31191461 C11.9388051,9.42177377 11.8731903,9.53895687 11.8731903,9.69275968 C11.8731903,9.99304137 12.0919062,10.2127597 12.3981085,10.2127597 C12.5366286,10.2127597 12.6970203,10.1541681 12.7990877,10.036985 L14.395714,8.33050616 L14.3519708,9.42909771 L14.3519708,11.5603653 C14.3519708,11.867971 14.6217204,12.1316329 14.9352133,12.1316329 Z M10.7504486,23.2567033 C9.22672761,23.2567033 8.46122187,22.4950132 8.46122187,20.9862808 L8.46122187,13.8234639 C8.46122187,12.3147315 9.22672761,11.5530414 10.7504486,11.5530414 L14.1842886,11.5530414 L14.1842886,16.9507879 C14.1842886,17.3536048 14.5269435,17.6831822 14.9352133,17.6831822 C15.3361925,17.6831822 15.6788474,17.3536048 15.6788474,16.9507879 L15.6788474,11.5530414 L19.1126874,11.5530414 C20.6364084,11.5530414 21.4019141,12.3147315 21.4019141,13.8234639 L21.4019141,20.9862808 C21.4019141,22.4950132 20.6364084,23.2567033 19.1126874,23.2567033 L10.7504486,23.2567033 Z" id="icn-share" fill="#646971" fill-rule="nonzero"></path>
                        </g>
                    </g>
                </g>
            </g>
        </g>
    </g>
</svg>