<?xml version="1.0" encoding="UTF-8"?>
<svg width="20px" height="21px" viewBox="0 0 20 21" version="1.1" xmlns="http://www.w3.org/2000/svg" xmlns:xlink="http://www.w3.org/1999/xlink">
    <title>C3CD5241-5446-43D3-9891-7F39FF11D48B</title>
    <g id="osman" stroke="none" stroke-width="1" fill="none" fill-rule="evenodd">
        <g id="Web-Home" transform="translate(-956.000000, -29.000000)" fill="#0091FF">
            <g id="Group-21">
                <g id="icn-profile" transform="translate(956.000000, 29.000000)">
                    <path d="M9.83426029,10.1846496 C7.32313682,10.1846496 5.16240267,7.94215795 5.16240267,5.04560623 C5.16240267,2.18409344 7.33481646,0 9.83426029,0 C12.3337041,0 14.5061179,2.13737486 14.5061179,5.02224694 C14.5061179,7.94215795 12.3337041,10.1846496 9.83426029,10.1846496 Z M2.48776418,21 C0.654060067,21 2.27373675e-13,20.474416 2.27373675e-13,19.4466073 C2.27373675e-13,16.4332592 3.77252503,12.2753059 9.82258065,12.2753059 C15.8843159,12.2753059 19.6568409,16.4332592 19.6568409,19.4466073 C19.6568409,20.474416 19.0027809,21 17.1573971,21 L2.48776418,21 Z"></path>
                </g>
            </g>
        </g>
    </g>
</svg>