<?xml version="1.0" encoding="UTF-8"?>
<svg width="22px" height="22px" viewBox="0 0 22 22" version="1.1" xmlns="http://www.w3.org/2000/svg" xmlns:xlink="http://www.w3.org/1999/xlink">
    <title>E8B6FE7F-A73F-4C1C-9BE8-222EB6C15B51</title>
    <g id="osman" stroke="none" stroke-width="1" fill="none" fill-rule="evenodd">
        <g id="Web-Home" transform="translate(-1014.000000, -29.000000)" fill="#414347" fill-rule="nonzero">
            <g id="Group-21">
                <g id="icons8-wallet" transform="translate(1014.000000, 29.000000)">
                    <path d="M3,-0.000100431844 C1.3550302,-0.000100431844 0,1.3550302 0,3 L0,19 C0,20.657 1.343,22 3,22 L20,22 C21.105,22 22,21.105 22,20 L22,6 C22,4.895 21.105,4 20,4 L12,4 L3,4 C2.4349698,4 2,3.5650302 2,3 C2,2.4349698 2.4349698,2 3,2 L18,2 C18.3606359,2.00510029 18.6960814,1.8156247 18.8778877,1.50412715 C19.0596941,1.1926296 19.0596941,0.807370403 18.8778877,0.49587285 C18.6960814,0.184375296 18.3606359,-0.00510028955 18,-0.000100431844 L3,-0.000100431844 Z M18,11 C19.105,11 20,11.895 20,13 C20,14.105 19.105,15 18,15 C16.895,15 16,14.105 16,13 C16,11.895 16.895,11 18,11 Z" id="Shape"></path>
                </g>
            </g>
        </g>
    </g>
</svg>